<svg width="2250" height="600" xmlns="http://www.w3.org/2000/svg">
 <g>
  <title>background</title>
  <rect x="-1" y="-1" width="2252" height="602" id="canvas_background" fill="none"/>
 </g>

 <g>
  <title>Layer 1</title>
  <text fill="#0c4575" stroke-width="0.1003" x="671.787644" y="177.161542" id="svg_9" font-size="60" font-family="'Palatino Linotype', 'Book Antiqua', Palatino, serif" text-anchor="start" xml:space="preserve" transform="matrix(4.509097576141357,0,0,4.509097576141357,-2379.7712827697396,-535.9049954563379) " stroke="#0C4575" font-weight="bold">Steemian</text>
  <text fill="#9fb4d7" stroke-width="0.1003" x="649.327926" y="507.889847" id="svg_10" font-size="120" font-family="'Palatino Linotype', 'Book Antiqua', Palatino, serif" text-anchor="start" xml:space="preserve" font-weight="bold" stroke="#9FB4D7">Friendly blog for steemians</text>
  <g stroke="null" id="svg_28">
   <g stroke="null" transform="matrix(0.9340558771353814,0,0,0.9340558771353814,-55842.1314529003,-14588.043863287156) " id="svg_26">
    <title stroke="null" transform="translate(-3.05885648727417,1.8189894035458565e-12) translate(0,3.05885648727417) translate(0,-3.05885648727417) translate(0,3.05885648727417) translate(-3.05885648727417,1.8189894035458565e-12) translate(-3.05885648727417,1.8189894035458565e-12) translate(-3.05885648727417,1.8189894035458565e-12) translate(-3.05885648727417,1.8189894035458565e-12) translate(-3.05885648727417,1.8189894035458565e-12) translate(-3.05885648727417,1.8189894035458565e-12) translate(-3.05885648727417,1.8189894035458565e-12) translate(-3.05885648727417,1.8189894035458565e-12) translate(-3.05885648727417,1.8189894035458565e-12) translate(-3.05885648727417,1.8189894035458565e-12) translate(0,3.05885648727417) translate(0,3.05885648727417) translate(0,3.05885648727417) translate(0,3.05885648727417) translate(-101.07859802246094,-119.7968521118164) translate(-4444.09375,-829.751708984375) translate(64387.53515625,0) translate(0,16575.009765625) ">background</title>
    <rect stroke="null" x="59807.715387" y="15639.755487" width="602" height="602" id="svg_24" fill="none"/>
   </g>
   <g stroke="null" transform="matrix(0.9340558771353814,0,0,0.9340558771353814,-55842.1314529003,-14588.043863287156) " id="svg_27">
    <title stroke="null" transform="translate(-3.05885648727417,1.8189894035458565e-12) translate(0,3.05885648727417) translate(0,-3.05885648727417) translate(0,3.05885648727417) translate(-3.05885648727417,1.8189894035458565e-12) translate(-3.05885648727417,1.8189894035458565e-12) translate(-3.05885648727417,1.8189894035458565e-12) translate(-3.05885648727417,1.8189894035458565e-12) translate(-3.05885648727417,1.8189894035458565e-12) translate(-3.05885648727417,1.8189894035458565e-12) translate(-3.05885648727417,1.8189894035458565e-12) translate(-3.05885648727417,1.8189894035458565e-12) translate(-3.05885648727417,1.8189894035458565e-12) translate(-3.05885648727417,1.8189894035458565e-12) translate(0,3.05885648727417) translate(0,3.05885648727417) translate(0,3.05885648727417) translate(0,3.05885648727417) translate(-101.07859802246094,-119.7968521118164) translate(-4444.09375,-829.751708984375) translate(64387.53515625,0) translate(0,16575.009765625) ">Layer 1</title>
    <g stroke="null" id="svg_15">
     <g stroke="null" transform="matrix(2.9094761371612545,0,0,2.9094761371612545,108.90985451604251,153.8511397122087) " id="svg_16">
      <g stroke="null" id="svg_17">
       <path stroke="#0C4575" fill="#0C4575" stroke-width="0.1003" stroke-miterlimit="10.43" d="m20607.584794,5328.887831c20.9,-2.9 42.6,0.9 61.3,10.5c6.3,2.8 6.5,12.6 0.8,16.2c-3.6,2.7 -8.3,1 -11.9,-0.9c-15.8,-8.3 -34.4,-10.5 -51.8,-7.2c-17.2,3.6 -33.1,12.8 -44.7,26c-13.9,15.5 -21.5,36.7 -20.6,57.6c1,16 6.7,31.8 16.4,44.6c10.1,13.1 24.1,23.4 39.9,28.6c22,7.3 47.2,4.6 66.8,-7.8c3.2,-2.1 7.4,-3.5 11.1,-1.4c5.8,2.8 6.4,12 0.9,15.5c-10.9,7.2 -23.4,11.7 -36.2,14.1c-8.9,1.9 -18.1,1.5 -27.1,1.2c-25.3,-2.4 -49.4,-15 -65.8,-34.4c-15.3,-18.2 -24.5,-41.9 -23.8,-65.8c0.2,-41.9 30,-81.3 69.9,-93.5c4.9,-1.4 9.8,-2.6 14.8,-3.3z" id="svg_23"/>
       <path stroke="#9FB4D7" fill="#9FB4D7" stroke-width="0.1003" stroke-miterlimit="10.43" d="m20588.984794,5364.787831c13.3,-7.3 29,-9.7 43.9,-7.7c26.1,3.8 49.1,23.4 56.9,48.6c-4.2,1.2 -8.2,2.9 -12.6,3.1c-7.8,-27.3 -39,-45.1 -66.4,-38.3c-5.2,0.9 -10,3.2 -14.8,5.4c-2.9,1.3 -7.3,1.6 -9.1,-1.4c-1.7,-3.3 -1.7,-8.2 2.1,-9.7z" id="svg_22"/>
       <path stroke="#798FB3" fill="#798FB3" stroke-width="0.1003" stroke-miterlimit="10.43" d="m20609.584794,5405.387831c7.5,-7.1 18.3,-9.5 28.4,-9.2c8,0.7 16.1,2 23.5,5.2c5.4,1.9 10.3,5.1 15.7,7.3c4.4,-0.2 8.5,-1.9 12.6,-3.1c3.9,-0.9 7.9,-0.5 11.4,0.6l0,0c-3.1,4.3 -6.9,8.2 -10.9,11.7c-2.8,2.4 -6.6,3.3 -10.3,3.2c-12.9,-0.3 -24.8,-5.8 -37.5,-7.4c-11.1,-1.4 -23.6,-0.8 -32.9,-8.3z" id="svg_21"/>
       <path stroke="#39608E" fill="#39608E" stroke-width="0.1003" stroke-miterlimit="10.43" d="m20602.884794,5412.987831c1.5,-3.1 3.9,-5.6 6.6,-7.6c9.3,7.4 21.8,6.8 33,8.3c12.7,1.5 24.6,7 37.5,7.4c3.6,0.1 7.4,-0.8 10.3,-3.2c4,-3.5 7.8,-7.4 10.9,-11.7c2.5,0.7 4.7,2.1 6.5,4.1c-5.1,3.3 -11.1,6.6 -12.5,13c7.6,10.2 14.1,21.3 17.9,33.5c-3.1,-0.4 -6.4,-0.8 -9,-2.7c-7.5,-5.1 -11.6,-13.4 -17.8,-19.8c-7.2,-6.4 -17.2,-8 -26.3,-10c-10,-2 -19.1,-7.3 -29.3,-8c-9.3,-0.7 -18.6,-1.6 -27.8,-3.3z" id="svg_20"/>
       <path stroke="#0C4575" fill="#0C4575" stroke-width="0.1003" stroke-miterlimit="10.43" d="m20602.884794,5412.987831c9.2,1.7 18.5,2.5 27.7,3.3c10.3,0.7 19.4,6 29.3,8c9.1,2.1 19.1,3.6 26.3,10c6.1,6.4 10.3,14.7 17.8,19.8c2.6,1.9 5.9,2.2 9,2.7c5.1,15.9 6.5,32.9 3.7,49.3c-1.5,5.7 5.9,8 6,13.5c-1.5,-0.5 -2.9,-1 -4.3,-1.5c-0.8,1.8 -1.7,3.5 -2.5,5.2c-4,-4.2 -1.9,-10.3 -3.8,-15.3c-5.6,-17.1 -15.2,-33.1 -28.7,-45.2c-3.3,-2.9 -6.8,-5.7 -10.4,-8.2c-5.6,-3.6 -11.6,-6.9 -18.1,-8.5c1.7,3.7 5.7,6.2 6,10.5c-7.1,1.1 -13.3,-3.1 -18.5,-7.3c-3,-2.3 -5,-5.7 -7.5,-8.5c-3.1,-1.6 -6.7,-1.9 -9.9,-3.1c-4.9,-1.4 -8.6,-5.4 -13.6,-6.7c-5.2,-1.3 -10.8,-1.1 -16,0.1c-2.7,0.5 -5.4,1.2 -8.1,0.7c-1.7,-1.3 -1.5,-3.9 -1,-5.8c1.8,-2.1 4.8,-2.4 7.2,-3.5c4.5,-1.2 6.7,-5.9 9.4,-9.5z" id="svg_19"/>
       <path stroke="#9FB4D7" fill="#9FB4D7" stroke-width="0.1003" stroke-miterlimit="10.43" d="m20672.984794,5454.687831c3.7,2.5 7.1,5.3 10.4,8.2c-8.6,14.6 -22.5,26 -38.6,31.4c-19.9,6.2 -42.6,3.9 -60.3,-7.5c-4.7,-2.3 -3.6,-10.4 1.4,-11.5c4,-1 7.4,1.9 10.8,3.7c20.8,10.9 48.1,6.9 65,-9.4c4.4,-4.5 9.1,-8.9 11.3,-14.9z" id="svg_18"/>
      </g>
     </g>
    </g>
   </g>
  </g>
 </g>
</svg>